<svg width="800" height="78" viewBox="0 0 800 78" fill="none" xmlns="http://www.w3.org/2000/svg">
<path d="M-1 25L33.5 12L90.5 1L143.5 8L191.4 27.5L259.188 21.5H282.116L300.06 24.5L319.5 35.5L355.886 41.5L402.241 26.5L425.17 20H438.628H452.086L485.482 22.5L542.304 13H578.691L623.551 26.5L664.922 35.5L725.732 20L760.124 17.5L800 31.5V79L-1 81V25Z" fill="#d5542b"/>
<g filter="url(#filter0_b_10_141)">
<path d="M-4 25.434C18.1667 15.7945 55 2.49994 94.5 2.49994C135.928 2.49994 166.333 16.983 173.5 21.0764C184.5 27.3594 201 29.8708 217 25.434C237 19.888 264 18 296 25.434C318.783 30.7268 342 46.0334 375 35.7337C408 25.434 418 13.9514 456 19.888C484.4 24.3248 499.5 25.434 517 18C550 7 574.038 7.38801 622.5 25.434C672.5 44.0527 695.5 28.6032 725 19.888C749.5 13.5497 777 20.2656 789 27L797.5 31.5" stroke="#d5542b" stroke-width="5" stroke-linecap="round"/>
</g>
<defs>
<filter id="filter0_b_10_141" x="-10.5006" y="-4.00006" width="814.501" height="49.7174" filterUnits="userSpaceOnUse" color-interpolation-filters="sRGB">
<feFlood flood-opacity="0" result="BackgroundImageFix"/>
<feGaussianBlur in="BackgroundImageFix" stdDeviation="2"/>
<feComposite in2="SourceAlpha" operator="in" result="effect1_backgroundBlur_10_141"/>
<feBlend mode="normal" in="SourceGraphic" in2="effect1_backgroundBlur_10_141" result="shape"/>
</filter>
</defs>
</svg>
