<?xml version="1.0" encoding="UTF-8" standalone="no"?>
<svg width="20px" height="20px" viewBox="0 0 39 33" version="1.1" xmlns="http://www.w3.org/2000/svg" xmlns:xlink="http://www.w3.org/1999/xlink" xmlns:sketch="http://www.bohemiancoding.com/sketch/ns">
    <!-- Generator: Sketch 3.4 (15588) - http://www.bohemiancoding.com/sketch -->
    <title>Mute</title>
    <desc>Created with Sketch.</desc>
    <defs></defs>
    <g id="Page-1" stroke="none" stroke-width="1" fill="white" fill-rule="evenodd" sketch:type="MSPage">
        <path d="M22.1,1 C21.7,0.7 21.3,0.6 20.8,0.7 C20.5,0.8 13.7,2.6 10,8.7 L1.7,8.7 C0.9,8.7 0.2,9.4 0.2,10.2 L0.2,23.5 C0.2,24.3 0.9,25 1.7,25 L9.8,25 C13.4,31.3 20.5,32.9 20.8,33 L21.1,33 C21.4,33 21.8,32.9 22,32.7 C22.4,32.4 22.6,32 22.6,31.5 L22.6,2.1 C22.7,1.8 22.5,1.3 22.1,1 L22.1,1 Z M19.7,29.6 C17.5,28.7 14,26.8 12.1,23 C11.8,22.5 11.3,22.2 10.8,22.2 L3.3,22.2 L3.3,11.9 L11,11.9 C11.6,11.9 12.1,11.6 12.3,11.1 C14.2,7.5 17.6,5.4 19.8,4.5 L19.8,29.6 L19.7,29.6 Z M34.4,16.8 L38.3,12.9 C38.9,12.3 38.9,11.4 38.3,10.8 C37.7,10.2 36.8,10.2 36.2,10.8 L32.3,14.7 L28.4,10.8 C27.8,10.2 26.9,10.2 26.3,10.8 C25.7,11.4 25.7,12.3 26.3,12.9 L30.2,16.8 L26.3,20.7 C25.7,21.3 25.7,22.2 26.3,22.8 C26.6,23.1 27,23.2 27.4,23.2 C27.8,23.2 28.2,23.1 28.5,22.8 L32.4,18.9 L36.3,22.8 C36.6,23.1 37,23.2 37.4,23.2 C37.8,23.2 38.2,23.1 38.5,22.8 C39.1,22.2 39.1,21.3 38.5,20.7 L34.4,16.8 L34.4,16.8 Z" id="Mute" fill="white" sketch:type="MSShapeGroup"></path>
    </g>
</svg>