<?xml version="1.0" encoding="UTF-8" standalone="no"?>
<svg width="20px" height="20px" viewBox="0 0 37 33" version="1.1" xmlns="http://www.w3.org/2000/svg" xmlns:xlink="http://www.w3.org/1999/xlink" xmlns:sketch="http://www.bohemiancoding.com/sketch/ns">
    <g id="Page-1" stroke="none" stroke-width="1" fill="white" fill-rule="evenodd" sketch:type="MSPage">
        <path d="M22.4,1 C22,0.7 21.6,0.6 21.1,0.7 C20.8,0.8 14,2.6 10.3,8.7 L2,8.7 C1.2,8.7 0.5,9.4 0.5,10.2 L0.5,23.5 C0.5,24.3 1.2,25 2,25 L10.1,25 C13.7,31.3 20.8,32.9 21.1,33 L21.4,33 C21.7,33 22.1,32.9 22.3,32.7 C22.7,32.4 22.9,32 22.9,31.5 L22.9,2.1 C23,1.8 22.8,1.3 22.4,1 L22.4,1 Z M20,29.6 C17.8,28.7 14.3,26.8 12.4,23 C12.1,22.5 11.6,22.2 11.1,22.2 L3.6,22.2 L3.6,11.9 L11.3,11.9 C11.9,11.9 12.4,11.6 12.6,11.1 C14.5,7.5 17.9,5.4 20.1,4.5 L20.1,29.6 L20,29.6 Z M31.6,3.8 C31.1,3.2 30.1,3.1 29.5,3.7 C28.9,4.2 28.8,5.2 29.4,5.8 C32.1,8.9 33.6,12.9 33.6,17 C33.6,21.1 32.1,25.1 29.4,28.2 C28.9,28.8 28.9,29.8 29.5,30.3 C29.8,30.5 30.1,30.7 30.5,30.7 C30.9,30.7 31.3,30.5 31.6,30.2 C34.8,26.5 36.5,21.9 36.5,17.1 C36.5,12.3 34.8,7.5 31.6,3.8 L31.6,3.8 Z M28,9.5 C27.5,8.9 26.5,8.8 25.9,9.4 C25.3,9.9 25.2,10.9 25.8,11.5 C27.1,13 27.8,14.9 27.8,16.9 C27.8,18.9 27.1,20.8 25.8,22.3 C25.3,22.9 25.3,23.9 25.9,24.4 C26.2,24.6 26.5,24.8 26.9,24.8 C27.3,24.8 27.7,24.6 28,24.3 C29.8,22.2 30.8,19.6 30.8,16.9 C30.8,14.2 29.8,11.6 28,9.5 L28,9.5 Z" id="Volume" fill="white" sketch:type="MSShapeGroup"></path>
    </g>
</svg>